<svg id="kity_svg_6" xmlns="http://www.w3.org/2000/svg" xmlns:xlink="http://www.w3.org/1999/xlink" version="1.1" width="599" height="317" style="background: rgb(251, 251, 251); visibility: visible;" viewBox="0 0 599 317"><defs id="kity_defs_7"><linearGradient id="kity_linearGradient_17" x1="0" y1="0" x2="0" y2="1"><stop id="kity_stop_18" offset="0" stop-color="rgb(255, 255, 255)"></stop><stop id="kity_stop_19" offset="1" stop-color="rgb(204, 204, 204)"></stop></linearGradient><marker id="kity_marker_2" orient="auto" refX="6" refY="0" viewBox="-7 -7 14 14" markerWidth="7" markerHeight="7" markerUnits="userSpaceOnUse"><path id="kity_path_3" fill="rgb(115, 161, 191)" stroke="none" d="M6,0A6,6,0,1,1,-6,0A6,6,0,1,1,6,0"></path></marker></defs><g id="kity_g_8"><g id="minder1" text-rendering="optimize-speed"><g id="minder_connect_group1"><path id="kity_path_69" fill="none" stroke="rgb(115, 161, 191)" stroke-width="1" d="M288.5,60.5v30h-225V110.5"></path><path id="kity_path_230" fill="none" stroke="rgb(115, 161, 191)" stroke-width="1" d="M40.5,136.5V182.5L60.5,182.5"></path><path id="kity_path_238" fill="none" stroke="rgb(115, 161, 191)" stroke-width="1" d="M40.5,136.5V234.5L60.5,234.5"></path><path id="kity_path_246" fill="none" stroke="rgb(115, 161, 191)" stroke-width="1" d="M288.5,60.5v30h-25V110.5"></path><path id="kity_path_254" fill="none" stroke="rgb(115, 161, 191)" stroke-width="1" d="M288.5,60.5v30h100V110.5"></path><path id="kity_path_262" fill="none" stroke="rgb(115, 161, 191)" stroke-width="1" d="M288.5,60.5v30h225V110.5"></path><path id="kity_path_270" fill="none" stroke="rgb(115, 161, 191)" stroke-width="1" d="M490.5,136.5V182.5L510.5,182.5"></path><path id="kity_path_286" fill="none" stroke="rgb(115, 161, 191)" stroke-width="1" d="M490.5,136.5V234.5L510.5,234.5"></path><path id="kity_path_294" fill="none" stroke="rgb(115, 161, 191)" stroke-width="1" d="M80.5,245.5V286.5L100.5,286.5"></path></g><g id="minder_node1"><path id="node_outline1" fill="rgb(115, 161, 191)" stroke="rgb(115, 161, 191)" d="M195.5,20.5h185a5,5,0,0,1,5,5v30a5,5,0,0,1,-5,5h-185a5,5,0,0,1,-5,-5v-30a5,5,0,0,1,5,-5z" stroke-width="3"></path><g id="node_text1" fill="white"><text id="kity_text_22" text-rendering="inherit" font-size="16" dy=".8em" y="32.5" x="214.5">tree-organizational</text></g><a id="kity_a_134" xmlns:xlink="http://www.w3.org/1999/xlink" xlink:href="xmind:#afaf040005000000000000a1a1" target="_blank" xlink:title="xmind:#afaf040005000000000000a1a1" style="cursor: pointer;" display="none"><path id="kity_path_136" fill="rgba(255, 255, 255, 0)" stroke="none" d="M288.5,29.5h16a4,4,0,0,1,4,4v14a4,4,0,0,1,-4,4h-16a4,4,0,0,1,-4,-4v-14a4,4,0,0,1,4,-4z"></path><path id="kity_path_135" fill="#666" stroke="none" d="M303.114,45.724000000000004h-1.278c-1.668,0,-3.07,-1.07,-3.599,-2.556h4.877c0.707,0,1.278,-0.571,1.278,-1.278V39.334c0,-0.707,-0.571,-1.278,-1.278,-1.278h-4.877C298.766,36.571,300.168,35.5,301.836,35.5h1.278c2.116,0,3.834,1.716,3.834,3.834V41.89C306.948,44.007999999999996,305.23,45.724000000000004,303.114,45.724000000000004zM291.612,40.612c0,-0.707,0.573,-1.278,1.278,-1.278h7.668c0.707,0,1.278,0.571,1.278,1.278S301.265,41.89,300.558,41.89H292.89C292.185,41.89,291.612,41.319,291.612,40.612zM289.056,39.334V41.89c0,0.707,0.573,1.278,1.278,1.278h4.877c-0.528,1.486,-1.932,2.556,-3.599,2.556H290.334C288.216,45.724000000000004,286.5,44.007999999999996,286.5,41.89V39.334C286.5,37.216,288.216,35.5,290.334,35.5h1.278c1.667,0,3.071,1.071,3.599,2.556H290.334C289.629,38.056,289.056,38.627,289.056,39.334z"></path></a></g><g id="kity_g_14" display="none"><path id="kity_path_15" fill="rgba(0, 92, 153, 0.5)" stroke="none" d="M28.5,257.5h69v15h-69z"></path><path id="kity_path_16" fill="none" stroke="rgb(0, 76, 128)" d="M28.5,272.5L97.5,272.5" stroke-width="1"></path></g><g id="minder_node21"><g id="node_expander20" style="cursor: pointer;"><path id="kity_path_218" fill="white" stroke="gray" d="M69,103.5A6,6,0,1,1,57,103.5A6,6,0,1,1,69,103.5"></path><path id="kity_path_219" fill="none" stroke="gray" d="M58.5,103.5L67.5,103.5"></path></g><path id="node_outline21" fill="rgb(238, 243, 246)" stroke="rgb(115, 161, 191)" d="M23.5,110.5h79a3,3,0,0,1,3,3v20a3,3,0,0,1,-3,3h-79a3,3,0,0,1,-3,-3v-20a3,3,0,0,1,3,-3z" stroke-width="1"></path><g id="node_text21" fill="black"><text id="kity_text_115" text-rendering="inherit" font-size="14" dy=".8em" y="116.5" x="40.5">child-1</text></g></g><g id="minder_node25"><g id="node_expander24" style="cursor: pointer;" display="none"><path id="kity_path_235" fill="white" stroke="gray" d="M60.5,182.5A6,6,0,1,1,48.5,182.5A6,6,0,1,1,60.5,182.5"></path><path id="kity_path_236" fill="none" stroke="gray"></path></g><path id="node_outline25" fill="none" stroke="none" d="M65.5,171.5h59a5,5,0,0,1,5,5v12a5,5,0,0,1,-5,5h-59a5,5,0,0,1,-5,-5v-12a5,5,0,0,1,5,-5z" stroke-width="3"></path><g id="node_text25" fill="black"><text id="kity_text_232" text-rendering="inherit" font-size="12" dy=".8em" y="176.5" x="70.5">child-1-1</text></g></g><g id="minder_node26"><g id="node_expander25" style="cursor: pointer;"><path id="kity_path_243" fill="white" stroke="gray" d="M60.5,234.5A6,6,0,1,1,48.5,234.5A6,6,0,1,1,60.5,234.5"></path><path id="kity_path_244" fill="none" stroke="gray" d="M50,234.5L59,234.5"></path></g><path id="node_outline26" fill="none" stroke="none" d="M65.5,223.5h59a5,5,0,0,1,5,5v12a5,5,0,0,1,-5,5h-59a5,5,0,0,1,-5,-5v-12a5,5,0,0,1,5,-5z" stroke-width="3"></path><g id="node_text26" fill="black"><text id="kity_text_240" text-rendering="inherit" font-size="12" dy=".8em" y="228.5" x="70.5">child-1-2</text></g></g><g id="minder_node27"><g id="node_expander26" style="cursor: pointer;" display="none"><path id="kity_path_251" fill="white" stroke="gray" d="M269,103.5A6,6,0,1,1,257,103.5A6,6,0,1,1,269,103.5"></path><path id="kity_path_252" fill="none" stroke="gray"></path></g><path id="node_outline27" fill="rgb(238, 243, 246)" stroke="rgb(115, 161, 191)" d="M223.5,110.5h79a3,3,0,0,1,3,3v20a3,3,0,0,1,-3,3h-79a3,3,0,0,1,-3,-3v-20a3,3,0,0,1,3,-3z" stroke-width="1"></path><g id="node_text27" fill="black"><text id="kity_text_248" text-rendering="inherit" font-size="14" dy=".8em" y="116.5" x="240.5">child-2</text></g></g><g id="minder_node28"><g id="node_expander27" style="cursor: pointer;" display="none"><path id="kity_path_259" fill="white" stroke="gray" d="M394,103.5A6,6,0,1,1,382,103.5A6,6,0,1,1,394,103.5"></path><path id="kity_path_260" fill="none" stroke="gray"></path></g><path id="node_outline28" fill="rgb(238, 243, 246)" stroke="rgb(115, 161, 191)" d="M348.5,110.5h79a3,3,0,0,1,3,3v20a3,3,0,0,1,-3,3h-79a3,3,0,0,1,-3,-3v-20a3,3,0,0,1,3,-3z" stroke-width="1"></path><g id="node_text28" fill="black"><text id="kity_text_256" text-rendering="inherit" font-size="14" dy=".8em" y="116.5" x="365.5">child-3</text></g></g><g id="minder_node29"><g id="node_expander28" style="cursor: pointer;"><path id="kity_path_267" fill="white" stroke="gray" d="M519,103.5A6,6,0,1,1,507,103.5A6,6,0,1,1,519,103.5"></path><path id="kity_path_268" fill="none" stroke="gray" d="M508.5,103.5L517.5,103.5"></path></g><path id="node_outline29" fill="rgb(238, 243, 246)" stroke="rgb(115, 161, 191)" d="M473.5,110.5h79a3,3,0,0,1,3,3v20a3,3,0,0,1,-3,3h-79a3,3,0,0,1,-3,-3v-20a3,3,0,0,1,3,-3z" stroke-width="1"></path><g id="node_text29" fill="black"><text id="kity_text_264" text-rendering="inherit" font-size="14" dy=".8em" y="116.5" x="490.5">child-4</text></g></g><g id="minder_node30"><g id="node_expander29" style="cursor: pointer;" display="none"><path id="kity_path_275" fill="white" stroke="gray" d="M510.5,182.5A6,6,0,1,1,498.5,182.5A6,6,0,1,1,510.5,182.5"></path><path id="kity_path_276" fill="none" stroke="gray" d="M500,182.5L509,182.5"></path></g><path id="node_outline30" fill="none" stroke="none" d="M515.5,171.5h59a5,5,0,0,1,5,5v12a5,5,0,0,1,-5,5h-59a5,5,0,0,1,-5,-5v-12a5,5,0,0,1,5,-5z" stroke-width="3"></path><g id="node_text30" fill="black"><text id="kity_text_272" text-rendering="inherit" font-size="12" dy=".8em" y="176.5" x="520.5">child-4-1</text></g></g><g id="minder_node32"><g id="node_expander31" style="cursor: pointer;" display="none"><path id="kity_path_291" fill="white" stroke="gray" d="M510.5,234.5A6,6,0,1,1,498.5,234.5A6,6,0,1,1,510.5,234.5"></path><path id="kity_path_292" fill="none" stroke="gray"></path></g><path id="node_outline32" fill="none" stroke="none" d="M515.5,223.5h59a5,5,0,0,1,5,5v12a5,5,0,0,1,-5,5h-59a5,5,0,0,1,-5,-5v-12a5,5,0,0,1,5,-5z" stroke-width="3"></path><g id="node_text32" fill="black"><text id="kity_text_288" text-rendering="inherit" font-size="12" dy=".8em" y="228.5" x="520.5">child-4-2</text></g></g><g id="minder_node33" opacity="1"><g id="node_expander32" style="cursor: pointer;" display="none"><path id="kity_path_299" fill="white" stroke="gray" d="M100.5,286.5A6,6,0,1,1,88.5,286.5A6,6,0,1,1,100.5,286.5"></path><path id="kity_path_300" fill="none" stroke="gray"></path></g><path id="node_outline33" fill="none" stroke="none" d="M105.5,275.5h70a5,5,0,0,1,5,5v12a5,5,0,0,1,-5,5h-70a5,5,0,0,1,-5,-5v-12a5,5,0,0,1,5,-5z" stroke-width="3"></path><g id="node_text33" fill="black"><text id="kity_text_296" text-rendering="inherit" font-size="12" dy=".8em" y="280.5" x="110.5">child-1-2-1</text></g></g><g id="kity_g_12" display="none"><path id="kity_path_13" fill="none" stroke="rgb(66, 94, 112)" d="M33.5,275.5h59a5,5,0,0,1,5,5v12a5,5,0,0,1,-5,5h-59a5,5,0,0,1,-5,-5v-12a5,5,0,0,1,5,-5z" stroke-width="5"></path></g></g></g></svg>