<svg id="kity_svg_6" xmlns="http://www.w3.org/2000/svg" xmlns:xlink="http://www.w3.org/1999/xlink" version="1.1" width="697" height="265" style="background: rgb(251, 251, 251); visibility: visible;" viewBox="0 0 697 265"><defs id="kity_defs_7"><linearGradient id="kity_linearGradient_17" x1="0" y1="0" x2="0" y2="1"><stop id="kity_stop_18" offset="0" stop-color="rgb(255, 255, 255)"></stop><stop id="kity_stop_19" offset="1" stop-color="rgb(204, 204, 204)"></stop></linearGradient><marker id="kity_marker_2" orient="auto" refX="6" refY="0" viewBox="-7 -7 14 14" markerWidth="7" markerHeight="7" markerUnits="userSpaceOnUse"><path id="kity_path_3" fill="rgb(115, 161, 191)" stroke="none" d="M6,0A6,6,0,1,1,-6,0A6,6,0,1,1,6,0"></path></marker></defs><g id="kity_g_8"><g id="minder1" text-rendering="optimize-speed"><g id="minder_connect_group1"><path id="kity_path_69" fill="none" stroke="rgb(115, 161, 191)" stroke-width="1" d="M350.5,60.5v30h-238V110.5"></path><path id="kity_path_230" fill="none" stroke="rgb(115, 161, 191)" stroke-width="1" d="M112.5,136.5v20h-57V171.5"></path><path id="kity_path_238" fill="none" stroke="rgb(115, 161, 191)" stroke-width="1" d="M112.5,136.5v20h57V171.5"></path><path id="kity_path_246" fill="none" stroke="rgb(115, 161, 191)" stroke-width="1" d="M350.5,60.5v30h-58V110.5"></path><path id="kity_path_254" fill="none" stroke="rgb(115, 161, 191)" stroke-width="1" d="M350.5,60.5v30h67V110.5"></path><path id="kity_path_262" fill="none" stroke="rgb(115, 161, 191)" stroke-width="1" d="M350.5,60.5v30h238V110.5"></path><path id="kity_path_270" fill="none" stroke="rgb(115, 161, 191)" stroke-width="1" d="M588.5,136.5v20h-54V171.5"></path><path id="kity_path_286" fill="none" stroke="rgb(115, 161, 191)" stroke-width="1" d="M588.5,136.5v20h55V171.5"></path><path id="kity_path_294" fill="none" stroke="rgb(115, 161, 191)" stroke-width="1" d="M169.5,193.5v15h0.5V223.5"></path></g><g id="minder_node1"><path id="node_outline1" fill="rgb(115, 161, 191)" stroke="rgb(115, 161, 191)" d="M275.5,20.5h149a5,5,0,0,1,5,5v30a5,5,0,0,1,-5,5h-149a5,5,0,0,1,-5,-5v-30a5,5,0,0,1,5,-5z" stroke-width="3"></path><g id="node_text1" fill="white"><text id="kity_text_22" text-rendering="inherit" font-size="16" dy=".8em" y="32.5" x="294.5">organizational</text></g><a id="kity_a_134" xmlns:xlink="http://www.w3.org/1999/xlink" xlink:href="xmind:#afaf040005000000000000a1a1" target="_blank" xlink:title="xmind:#afaf040005000000000000a1a1" style="cursor: pointer;" display="none"><path id="kity_path_136" fill="rgba(255, 255, 255, 0)" stroke="none" d="M368.5,29.5h16a4,4,0,0,1,4,4v14a4,4,0,0,1,-4,4h-16a4,4,0,0,1,-4,-4v-14a4,4,0,0,1,4,-4z"></path><path id="kity_path_135" fill="#666" stroke="none" d="M383.114,45.724000000000004h-1.278c-1.668,0,-3.07,-1.07,-3.599,-2.556h4.877c0.707,0,1.278,-0.571,1.278,-1.278V39.334c0,-0.707,-0.571,-1.278,-1.278,-1.278h-4.877C378.766,36.571,380.168,35.5,381.836,35.5h1.278c2.116,0,3.834,1.716,3.834,3.834V41.89C386.948,44.007999999999996,385.23,45.724000000000004,383.114,45.724000000000004zM371.612,40.612c0,-0.707,0.573,-1.278,1.278,-1.278h7.668c0.707,0,1.278,0.571,1.278,1.278S381.265,41.89,380.558,41.89H372.89C372.185,41.89,371.612,41.319,371.612,40.612zM369.056,39.334V41.89c0,0.707,0.573,1.278,1.278,1.278h4.877c-0.528,1.486,-1.932,2.556,-3.599,2.556H370.334C368.216,45.724000000000004,366.5,44.007999999999996,366.5,41.89V39.334C366.5,37.216,368.216,35.5,370.334,35.5h1.278c1.667,0,3.071,1.071,3.599,2.556H370.334C369.629,38.056,369.056,38.627,369.056,39.334z"></path></a></g><g id="kity_g_14" display="none"><path id="kity_path_15" fill="rgba(0, 92, 153, 0.5)" stroke="none" d="M108.5,257.5h69v15h-69z"></path><path id="kity_path_16" fill="none" stroke="rgb(0, 76, 128)" d="M108.5,272.5L177.5,272.5" stroke-width="1"></path></g><g id="minder_node21"><g id="node_expander20" style="cursor: pointer;"><path id="kity_path_218" fill="white" stroke="gray" d="M118,103.5A6,6,0,1,1,106,103.5A6,6,0,1,1,118,103.5"></path><path id="kity_path_219" fill="none" stroke="gray" d="M107.5,103.5L116.5,103.5"></path></g><path id="node_outline21" fill="rgb(238, 243, 246)" stroke="rgb(115, 161, 191)" d="M72.5,110.5h79a3,3,0,0,1,3,3v20a3,3,0,0,1,-3,3h-79a3,3,0,0,1,-3,-3v-20a3,3,0,0,1,3,-3z" stroke-width="1"></path><g id="node_text21" fill="black"><text id="kity_text_115" text-rendering="inherit" font-size="14" dy=".8em" y="116.5" x="89.5">child-1</text></g></g><g id="minder_node25"><g id="node_expander24" style="cursor: pointer;" display="none"><path id="kity_path_235" fill="white" stroke="gray" d="M61,165.5A6,6,0,1,1,49,165.5A6,6,0,1,1,61,165.5"></path><path id="kity_path_236" fill="none" stroke="gray"></path></g><path id="node_outline25" fill="none" stroke="none" d="M25.5,171.5h59a5,5,0,0,1,5,5v12a5,5,0,0,1,-5,5h-59a5,5,0,0,1,-5,-5v-12a5,5,0,0,1,5,-5z" stroke-width="3"></path><g id="node_text25" fill="black"><text id="kity_text_232" text-rendering="inherit" font-size="12" dy=".8em" y="176.5" x="30.5">child-1-1</text></g></g><g id="minder_node26"><g id="node_expander25" style="cursor: pointer;"><path id="kity_path_243" fill="white" stroke="gray" d="M175,165.5A6,6,0,1,1,163,165.5A6,6,0,1,1,175,165.5"></path><path id="kity_path_244" fill="none" stroke="gray" d="M164.5,165.5L173.5,165.5"></path></g><path id="node_outline26" fill="none" stroke="none" d="M139.5,171.5h59a5,5,0,0,1,5,5v12a5,5,0,0,1,-5,5h-59a5,5,0,0,1,-5,-5v-12a5,5,0,0,1,5,-5z" stroke-width="3"></path><g id="node_text26" fill="black"><text id="kity_text_240" text-rendering="inherit" font-size="12" dy=".8em" y="176.5" x="144.5">child-1-2</text></g></g><g id="minder_node27"><g id="node_expander26" style="cursor: pointer;" display="none"><path id="kity_path_251" fill="white" stroke="gray" d="M298,103.5A6,6,0,1,1,286,103.5A6,6,0,1,1,298,103.5"></path><path id="kity_path_252" fill="none" stroke="gray"></path></g><path id="node_outline27" fill="rgb(238, 243, 246)" stroke="rgb(115, 161, 191)" d="M252.5,110.5h79a3,3,0,0,1,3,3v20a3,3,0,0,1,-3,3h-79a3,3,0,0,1,-3,-3v-20a3,3,0,0,1,3,-3z" stroke-width="1"></path><g id="node_text27" fill="black"><text id="kity_text_248" text-rendering="inherit" font-size="14" dy=".8em" y="116.5" x="269.5">child-2</text></g></g><g id="minder_node28"><g id="node_expander27" style="cursor: pointer;" display="none"><path id="kity_path_259" fill="white" stroke="gray" d="M423,103.5A6,6,0,1,1,411,103.5A6,6,0,1,1,423,103.5"></path><path id="kity_path_260" fill="none" stroke="gray"></path></g><path id="node_outline28" fill="rgb(238, 243, 246)" stroke="rgb(115, 161, 191)" d="M377.5,110.5h79a3,3,0,0,1,3,3v20a3,3,0,0,1,-3,3h-79a3,3,0,0,1,-3,-3v-20a3,3,0,0,1,3,-3z" stroke-width="1"></path><g id="node_text28" fill="black"><text id="kity_text_256" text-rendering="inherit" font-size="14" dy=".8em" y="116.5" x="394.5">child-3</text></g></g><g id="minder_node29"><g id="node_expander28" style="cursor: pointer;"><path id="kity_path_267" fill="white" stroke="gray" d="M594,103.5A6,6,0,1,1,582,103.5A6,6,0,1,1,594,103.5"></path><path id="kity_path_268" fill="none" stroke="gray" d="M583.5,103.5L592.5,103.5"></path></g><path id="node_outline29" fill="rgb(238, 243, 246)" stroke="rgb(115, 161, 191)" d="M548.5,110.5h79a3,3,0,0,1,3,3v20a3,3,0,0,1,-3,3h-79a3,3,0,0,1,-3,-3v-20a3,3,0,0,1,3,-3z" stroke-width="1"></path><g id="node_text29" fill="black"><text id="kity_text_264" text-rendering="inherit" font-size="14" dy=".8em" y="116.5" x="565.5">child-4</text></g></g><g id="minder_node30"><g id="node_expander29" style="cursor: pointer;" display="none"><path id="kity_path_275" fill="white" stroke="gray" d="M540,165.5A6,6,0,1,1,528,165.5A6,6,0,1,1,540,165.5"></path><path id="kity_path_276" fill="none" stroke="gray" d="M529.5,165.5L538.5,165.5"></path></g><path id="node_outline30" fill="none" stroke="none" d="M504.5,171.5h59a5,5,0,0,1,5,5v12a5,5,0,0,1,-5,5h-59a5,5,0,0,1,-5,-5v-12a5,5,0,0,1,5,-5z" stroke-width="3"></path><g id="node_text30" fill="black"><text id="kity_text_272" text-rendering="inherit" font-size="12" dy=".8em" y="176.5" x="509.5">child-4-1</text></g></g><g id="minder_node32"><g id="node_expander31" style="cursor: pointer;" display="none"><path id="kity_path_291" fill="white" stroke="gray" d="M649,165.5A6,6,0,1,1,637,165.5A6,6,0,1,1,649,165.5"></path><path id="kity_path_292" fill="none" stroke="gray"></path></g><path id="node_outline32" fill="none" stroke="none" d="M613.5,171.5h59a5,5,0,0,1,5,5v12a5,5,0,0,1,-5,5h-59a5,5,0,0,1,-5,-5v-12a5,5,0,0,1,5,-5z" stroke-width="3"></path><g id="node_text32" fill="black"><text id="kity_text_288" text-rendering="inherit" font-size="12" dy=".8em" y="176.5" x="618.5">child-4-2</text></g></g><g id="minder_node33" opacity="1"><g id="node_expander32" style="cursor: pointer;" display="none"><path id="kity_path_299" fill="white" stroke="gray" d="M175.5,217.5A6,6,0,1,1,163.5,217.5A6,6,0,1,1,175.5,217.5"></path><path id="kity_path_300" fill="none" stroke="gray"></path></g><path id="node_outline33" fill="none" stroke="none" d="M134.5,223.5h70a5,5,0,0,1,5,5v12a5,5,0,0,1,-5,5h-70a5,5,0,0,1,-5,-5v-12a5,5,0,0,1,5,-5z" stroke-width="3"></path><g id="node_text33" fill="black"><text id="kity_text_296" text-rendering="inherit" font-size="12" dy=".8em" y="228.5" x="139.5">child-1-2-1</text></g></g><g id="kity_g_12" display="none"><path id="kity_path_13" fill="none" stroke="rgb(66, 94, 112)" d="M113.5,275.5h59a5,5,0,0,1,5,5v12a5,5,0,0,1,-5,5h-59a5,5,0,0,1,-5,-5v-12a5,5,0,0,1,5,-5z" stroke-width="5"></path></g></g></g></svg>