<svg id="kity_svg_6" xmlns="http://www.w3.org/2000/svg" xmlns:xlink="http://www.w3.org/1999/xlink" version="1.1" width="653" height="360" style="background: rgb(251, 251, 251); visibility: visible;" viewBox="0 0 653 360"><defs id="kity_defs_7"><linearGradient id="kity_linearGradient_17" x1="0" y1="0" x2="0" y2="1"><stop id="kity_stop_18" offset="0" stop-color="rgb(255, 255, 255)"></stop><stop id="kity_stop_19" offset="1" stop-color="rgb(204, 204, 204)"></stop></linearGradient><marker id="kity_marker_2" orient="auto" refX="6" refY="0" viewBox="-7 -7 14 14" markerWidth="7" markerHeight="7" markerUnits="userSpaceOnUse"><path id="kity_path_3" fill="rgb(115, 161, 191)" stroke="none" d="M6,0A6,6,0,1,1,-6,0A6,6,0,1,1,6,0"></path></marker></defs><g id="kity_g_8"><g id="minder1" text-rendering="optimize-speed"><g id="minder_connect_group1"><path id="kity_path_69" fill="none" stroke="rgb(115, 161, 191)" stroke-width="1" d="M110,180.5A207.5,123,0,0,1,317.5,57.5"></path><path id="kity_path_230" fill="none" stroke="rgb(115, 161, 191)" stroke-width="1" d="M404.5,57.5C424.5,57.5,424.5,31.5,444.5,31.5"></path><path id="kity_path_238" fill="none" stroke="rgb(115, 161, 191)" stroke-width="1" d="M404.5,57.5C424.5,57.5,424.5,83.5,444.5,83.5"></path><path id="kity_path_246" fill="none" stroke="rgb(115, 161, 191)" stroke-width="1" d="M110,180.5A207.5,33,0,0,1,317.5,147.5"></path><path id="kity_path_254" fill="none" stroke="rgb(115, 161, 191)" stroke-width="1" d="M110,180.5A207.5,33,0,0,0,317.5,213.5"></path><path id="kity_path_262" fill="none" stroke="rgb(115, 161, 191)" stroke-width="1" d="M110,180.5A207.5,123,0,0,0,317.5,303.5"></path><path id="kity_path_270" fill="none" stroke="rgb(115, 161, 191)" stroke-width="1" d="M404.5,303.5C424.5,303.5,424.5,277.5,444.5,277.5"></path><path id="kity_path_286" fill="none" stroke="rgb(115, 161, 191)" stroke-width="1" d="M404.5,303.5C424.5,303.5,424.5,329.5,444.5,329.5"></path><path id="kity_path_294" fill="none" stroke="rgb(115, 161, 191)" stroke-width="1" d="M513.5,83.5C533.5,83.5,533.5,83.5,553.5,83.5"></path></g><g id="minder_node1"><path id="node_outline1" fill="rgb(115, 161, 191)" stroke="rgb(115, 161, 191)" d="M25.5,160.5h169a5,5,0,0,1,5,5v30a5,5,0,0,1,-5,5h-169a5,5,0,0,1,-5,-5v-30a5,5,0,0,1,5,-5z" stroke-width="3"></path><g id="node_text1" fill="white"><text id="kity_text_22" text-rendering="inherit" font-size="16" dy=".8em" y="172.5" x="44.5">right-hierarchical</text></g><a id="kity_a_134" xmlns:xlink="http://www.w3.org/1999/xlink" xlink:href="xmind:#afaf040005000000000000a1a1" target="_blank" xlink:title="xmind:#afaf040005000000000000a1a1" style="cursor: pointer;" display="none"><path id="kity_path_136" fill="rgba(255, 255, 255, 0)" stroke="none" d="M118.5,169.5h16a4,4,0,0,1,4,4v14a4,4,0,0,1,-4,4h-16a4,4,0,0,1,-4,-4v-14a4,4,0,0,1,4,-4z"></path><path id="kity_path_135" fill="#666" stroke="none" d="M133.114,185.724h-1.278c-1.668,0,-3.07,-1.07,-3.599,-2.556h4.877c0.707,0,1.278,-0.571,1.278,-1.278V179.334c0,-0.707,-0.571,-1.278,-1.278,-1.278h-4.877C128.766,176.571,130.168,175.5,131.836,175.5h1.278c2.116,0,3.834,1.716,3.834,3.834V181.89C136.948,184.008,135.23,185.724,133.114,185.724zM121.612,180.612c0,-0.707,0.573,-1.278,1.278,-1.278h7.668c0.707,0,1.278,0.571,1.278,1.278S131.265,181.89,130.558,181.89H122.89C122.185,181.89,121.612,181.319,121.612,180.612zM119.056,179.334V181.89c0,0.707,0.573,1.278,1.278,1.278h4.877c-0.528,1.486,-1.932,2.556,-3.599,2.556H120.334C118.216,185.724,116.5,184.008,116.5,181.89V179.334C116.5,177.216,118.216,175.5,120.334,175.5h1.278c1.667,0,3.071,1.071,3.599,2.556H120.334C119.629,178.056,119.056,178.627,119.056,179.334z"></path></a></g><g id="kity_g_14" display="none"><path id="kity_path_15" fill="rgba(0, 92, 153, 0.5)" stroke="none" d="M-141.5,397.5h69v15h-69z"></path><path id="kity_path_16" fill="none" stroke="rgb(0, 76, 128)" d="M-141.5,412.5L-72.5,412.5" stroke-width="1"></path></g><g id="minder_node21"><g id="node_expander20" style="cursor: pointer;"><path id="kity_path_218" fill="white" stroke="gray" d="M318.5,57.5A6,6,0,1,1,306.5,57.5A6,6,0,1,1,318.5,57.5"></path><path id="kity_path_219" fill="none" stroke="gray" d="M308,57.5L317,57.5"></path></g><path id="node_outline21" fill="rgb(238, 243, 246)" stroke="rgb(115, 161, 191)" d="M322.5,44.5h79a3,3,0,0,1,3,3v20a3,3,0,0,1,-3,3h-79a3,3,0,0,1,-3,-3v-20a3,3,0,0,1,3,-3z" stroke-width="1"></path><g id="node_text21" fill="black"><text id="kity_text_115" text-rendering="inherit" font-size="14" dy=".8em" y="50.5" x="339.5">child-1</text></g></g><g id="minder_node25"><g id="node_expander24" style="cursor: pointer;" display="none"><path id="kity_path_235" fill="white" stroke="gray" d="M444.5,31.5A6,6,0,1,1,432.5,31.5A6,6,0,1,1,444.5,31.5"></path><path id="kity_path_236" fill="none" stroke="gray"></path></g><path id="node_outline25" fill="none" stroke="none" d="M449.5,20.5h59a5,5,0,0,1,5,5v12a5,5,0,0,1,-5,5h-59a5,5,0,0,1,-5,-5v-12a5,5,0,0,1,5,-5z" stroke-width="3"></path><g id="node_text25" fill="black"><text id="kity_text_232" text-rendering="inherit" font-size="12" dy=".8em" y="25.5" x="454.5">child-1-1</text></g></g><g id="minder_node26"><g id="node_expander25" style="cursor: pointer;"><path id="kity_path_243" fill="white" stroke="gray" d="M444.5,83.5A6,6,0,1,1,432.5,83.5A6,6,0,1,1,444.5,83.5"></path><path id="kity_path_244" fill="none" stroke="gray" d="M434,83.5L443,83.5"></path></g><path id="node_outline26" fill="none" stroke="none" d="M449.5,72.5h59a5,5,0,0,1,5,5v12a5,5,0,0,1,-5,5h-59a5,5,0,0,1,-5,-5v-12a5,5,0,0,1,5,-5z" stroke-width="3"></path><g id="node_text26" fill="black"><text id="kity_text_240" text-rendering="inherit" font-size="12" dy=".8em" y="77.5" x="454.5">child-1-2</text></g></g><g id="minder_node27"><g id="node_expander26" style="cursor: pointer;" display="none"><path id="kity_path_251" fill="white" stroke="gray" d="M318.5,147.5A6,6,0,1,1,306.5,147.5A6,6,0,1,1,318.5,147.5"></path><path id="kity_path_252" fill="none" stroke="gray"></path></g><path id="node_outline27" fill="rgb(238, 243, 246)" stroke="rgb(115, 161, 191)" d="M322.5,134.5h79a3,3,0,0,1,3,3v20a3,3,0,0,1,-3,3h-79a3,3,0,0,1,-3,-3v-20a3,3,0,0,1,3,-3z" stroke-width="1"></path><g id="node_text27" fill="black"><text id="kity_text_248" text-rendering="inherit" font-size="14" dy=".8em" y="140.5" x="339.5">child-2</text></g></g><g id="minder_node28"><g id="node_expander27" style="cursor: pointer;" display="none"><path id="kity_path_259" fill="white" stroke="gray" d="M318.5,213.5A6,6,0,1,1,306.5,213.5A6,6,0,1,1,318.5,213.5"></path><path id="kity_path_260" fill="none" stroke="gray"></path></g><path id="node_outline28" fill="rgb(238, 243, 246)" stroke="rgb(115, 161, 191)" d="M322.5,200.5h79a3,3,0,0,1,3,3v20a3,3,0,0,1,-3,3h-79a3,3,0,0,1,-3,-3v-20a3,3,0,0,1,3,-3z" stroke-width="1"></path><g id="node_text28" fill="black"><text id="kity_text_256" text-rendering="inherit" font-size="14" dy=".8em" y="206.5" x="339.5">child-3</text></g></g><g id="minder_node29"><g id="node_expander28" style="cursor: pointer;"><path id="kity_path_267" fill="white" stroke="gray" d="M318.5,303.5A6,6,0,1,1,306.5,303.5A6,6,0,1,1,318.5,303.5"></path><path id="kity_path_268" fill="none" stroke="gray" d="M308,303.5L317,303.5"></path></g><path id="node_outline29" fill="rgb(238, 243, 246)" stroke="rgb(115, 161, 191)" d="M322.5,290.5h79a3,3,0,0,1,3,3v20a3,3,0,0,1,-3,3h-79a3,3,0,0,1,-3,-3v-20a3,3,0,0,1,3,-3z" stroke-width="1"></path><g id="node_text29" fill="black"><text id="kity_text_264" text-rendering="inherit" font-size="14" dy=".8em" y="296.5" x="339.5">child-4</text></g></g><g id="minder_node30"><g id="node_expander29" style="cursor: pointer;" display="none"><path id="kity_path_275" fill="white" stroke="gray" d="M444.5,277.5A6,6,0,1,1,432.5,277.5A6,6,0,1,1,444.5,277.5"></path><path id="kity_path_276" fill="none" stroke="gray" d="M434,277.5L443,277.5"></path></g><path id="node_outline30" fill="none" stroke="none" d="M449.5,266.5h59a5,5,0,0,1,5,5v12a5,5,0,0,1,-5,5h-59a5,5,0,0,1,-5,-5v-12a5,5,0,0,1,5,-5z" stroke-width="3"></path><g id="node_text30" fill="black"><text id="kity_text_272" text-rendering="inherit" font-size="12" dy=".8em" y="271.5" x="454.5">child-4-1</text></g></g><g id="minder_node32"><g id="node_expander31" style="cursor: pointer;" display="none"><path id="kity_path_291" fill="white" stroke="gray" d="M444.5,329.5A6,6,0,1,1,432.5,329.5A6,6,0,1,1,444.5,329.5"></path><path id="kity_path_292" fill="none" stroke="gray"></path></g><path id="node_outline32" fill="none" stroke="none" d="M449.5,318.5h59a5,5,0,0,1,5,5v12a5,5,0,0,1,-5,5h-59a5,5,0,0,1,-5,-5v-12a5,5,0,0,1,5,-5z" stroke-width="3"></path><g id="node_text32" fill="black"><text id="kity_text_288" text-rendering="inherit" font-size="12" dy=".8em" y="323.5" x="454.5">child-4-2</text></g></g><g id="minder_node33" opacity="1"><g id="node_expander32" style="cursor: pointer;" display="none"><path id="kity_path_299" fill="white" stroke="gray" d="M553.5,83.5A6,6,0,1,1,541.5,83.5A6,6,0,1,1,553.5,83.5"></path><path id="kity_path_300" fill="none" stroke="gray"></path></g><path id="node_outline33" fill="none" stroke="none" d="M558.5,72.5h70a5,5,0,0,1,5,5v12a5,5,0,0,1,-5,5h-70a5,5,0,0,1,-5,-5v-12a5,5,0,0,1,5,-5z" stroke-width="3"></path><g id="node_text33" fill="black"><text id="kity_text_296" text-rendering="inherit" font-size="12" dy=".8em" y="77.5" x="563.5">child-1-2-1</text></g></g><g id="kity_g_12" display="none"><path id="kity_path_13" fill="none" stroke="rgb(66, 94, 112)" d="M-136.5,415.5h59a5,5,0,0,1,5,5v12a5,5,0,0,1,-5,5h-59a5,5,0,0,1,-5,-5v-12a5,5,0,0,1,5,-5z" stroke-width="5"></path></g></g></g></svg>