<svg id="kity_svg_6" xmlns="http://www.w3.org/2000/svg" xmlns:xlink="http://www.w3.org/1999/xlink" version="1.1" width="906" height="207" style="background: rgb(251, 251, 251); visibility: visible;" viewBox="0 0 906 207"><defs id="kity_defs_7"><linearGradient id="kity_linearGradient_17" x1="0" y1="0" x2="0" y2="1"><stop id="kity_stop_18" offset="0" stop-color="rgb(255, 255, 255)"></stop><stop id="kity_stop_19" offset="1" stop-color="rgb(204, 204, 204)"></stop></linearGradient><marker id="kity_marker_2" orient="auto" refX="6" refY="0" viewBox="-7 -7 14 14" markerWidth="7" markerHeight="7" markerUnits="userSpaceOnUse"><path id="kity_path_3" fill="rgb(115, 161, 191)" stroke="none" d="M6,0A6,6,0,1,1,-6,0A6,6,0,1,1,6,0"></path></marker></defs><g id="kity_g_8"><g id="minder1" text-rendering="optimize-speed"><g id="minder_connect_group1"><path id="kity_path_69" fill="none" stroke="rgb(115, 161, 191)" stroke-width="1" d="M393.5,102.5A177,45,0,0,1,570.5,57.5"></path><path id="kity_path_230" fill="none" stroke="rgb(115, 161, 191)" stroke-width="1" d="M657.5,57.5C672.5,57.5,672.5,45.5,687.5,45.5L766.5,45.5"></path><path id="kity_path_238" fill="none" stroke="rgb(115, 161, 191)" stroke-width="1" d="M657.5,57.5C672.5,57.5,672.5,97.5,687.5,97.5L766.5,97.5"></path><path id="kity_path_246" fill="none" stroke="rgb(115, 161, 191)" stroke-width="1" d="M393.5,102.5A177,45,0,0,0,570.5,147.5"></path><path id="kity_path_254" fill="none" stroke="rgb(115, 161, 191)" stroke-width="1" d="M393.5,102.5A177,45,0,0,0,216.5,57.5"></path><path id="kity_path_262" fill="none" stroke="rgb(115, 161, 191)" stroke-width="1" d="M393.5,102.5A177,45,0,0,1,216.5,147.5"></path><path id="kity_path_270" fill="none" stroke="rgb(115, 161, 191)" stroke-width="1" d="M129.5,147.5C114.5,147.5,114.5,135.5,99.5,135.5L20.5,135.5"></path><path id="kity_path_286" fill="none" stroke="rgb(115, 161, 191)" stroke-width="1" d="M129.5,147.5C114.5,147.5,114.5,187.5,99.5,187.5L20.5,187.5"></path><path id="kity_path_294" fill="none" stroke="rgb(115, 161, 191)" stroke-width="1" d="M766.5,97.5C781.5,97.5,781.5,97.5,796.5,97.5L886.5,97.5"></path></g><g id="minder_node1"><path id="node_outline1" fill="rgb(115, 161, 191)" stroke="rgb(57, 80, 96)" d="M339.5,82.5h108a5,5,0,0,1,5,5v30a5,5,0,0,1,-5,5h-108a5,5,0,0,1,-5,-5v-30a5,5,0,0,1,5,-5z" stroke-width="3"></path><g id="node_text1" fill="white"><text id="kity_text_22" text-rendering="inherit" font-size="16" dy=".8em" y="94.5" x="358.5">standard</text></g><a id="kity_a_134" xmlns:xlink="http://www.w3.org/1999/xlink" xlink:href="xmind:#afaf040005000000000000a1a1" target="_blank" xlink:title="xmind:#afaf040005000000000000a1a1" style="cursor: pointer;" display="none"><path id="kity_path_136" fill="rgba(255, 255, 255, 0)" stroke="none" d="M432.5,91.5h16a4,4,0,0,1,4,4v14a4,4,0,0,1,-4,4h-16a4,4,0,0,1,-4,-4v-14a4,4,0,0,1,4,-4z"></path><path id="kity_path_135" fill="#666" stroke="none" d="M447.114,107.724h-1.278c-1.668,0,-3.07,-1.07,-3.599,-2.556h4.877c0.707,0,1.278,-0.571,1.278,-1.278V101.334c0,-0.707,-0.571,-1.278,-1.278,-1.278h-4.877C442.766,98.571,444.168,97.5,445.836,97.5h1.278c2.116,0,3.834,1.716,3.834,3.834V103.89C450.948,106.008,449.23,107.724,447.114,107.724zM435.612,102.612c0,-0.707,0.573,-1.278,1.278,-1.278h7.668c0.707,0,1.278,0.571,1.278,1.278S445.265,103.89,444.558,103.89H436.89C436.185,103.89,435.612,103.319,435.612,102.612zM433.056,101.334V103.89c0,0.707,0.573,1.278,1.278,1.278h4.877c-0.528,1.486,-1.932,2.556,-3.599,2.556H434.334C432.216,107.724,430.5,106.008,430.5,103.89V101.334C430.5,99.216,432.216,97.5,434.334,97.5h1.278c1.667,0,3.071,1.071,3.599,2.556H434.334C433.629,100.056,433.056,100.627,433.056,101.334z"></path></a></g><g id="kity_g_14" display="none"><path id="kity_path_15" fill="rgba(0, 92, 153, 0.5)" stroke="none" d="M172.5,319.5h69v15h-69z"></path><path id="kity_path_16" fill="none" stroke="rgb(0, 76, 128)" d="M172.5,334.5L241.5,334.5" stroke-width="1"></path></g><g id="minder_node21"><g id="node_expander20" style="cursor: pointer;"><path id="kity_path_218" fill="white" stroke="gray" d="M571.5,57.5A6,6,0,1,1,559.5,57.5A6,6,0,1,1,571.5,57.5"></path><path id="kity_path_219" fill="none" stroke="gray" d="M561,57.5L570,57.5"></path></g><path id="node_outline21" fill="rgb(238, 243, 246)" stroke="rgb(115, 161, 191)" d="M575.5,44.5h79a3,3,0,0,1,3,3v20a3,3,0,0,1,-3,3h-79a3,3,0,0,1,-3,-3v-20a3,3,0,0,1,3,-3z" stroke-width="1"></path><g id="node_text21" fill="black"><text id="kity_text_115" text-rendering="inherit" font-size="14" dy=".8em" y="50.5" x="592.5">child-1</text></g></g><g id="minder_node25"><g id="node_expander24" style="cursor: pointer;" display="none"><path id="kity_path_235" fill="white" stroke="gray" d="M697.5,31.5A6,6,0,1,1,685.5,31.5A6,6,0,1,1,697.5,31.5"></path><path id="kity_path_236" fill="none" stroke="gray"></path></g><path id="node_outline25" fill="none" stroke="none" d="M702.5,20.5h59a5,5,0,0,1,5,5v12a5,5,0,0,1,-5,5h-59a5,5,0,0,1,-5,-5v-12a5,5,0,0,1,5,-5z" stroke-width="3"></path><g id="node_text25" fill="black"><text id="kity_text_232" text-rendering="inherit" font-size="12" dy=".8em" y="25.5" x="707.5">child-1-1</text></g></g><g id="minder_node26"><g id="node_expander25" style="cursor: pointer;"><path id="kity_path_243" fill="white" stroke="gray" d="M697.5,83.5A6,6,0,1,1,685.5,83.5A6,6,0,1,1,697.5,83.5"></path><path id="kity_path_244" fill="none" stroke="gray" d="M687,83.5L696,83.5"></path></g><path id="node_outline26" fill="none" stroke="none" d="M702.5,72.5h59a5,5,0,0,1,5,5v12a5,5,0,0,1,-5,5h-59a5,5,0,0,1,-5,-5v-12a5,5,0,0,1,5,-5z" stroke-width="3"></path><g id="node_text26" fill="black"><text id="kity_text_240" text-rendering="inherit" font-size="12" dy=".8em" y="77.5" x="707.5">child-1-2</text></g></g><g id="minder_node27"><g id="node_expander26" style="cursor: pointer;" display="none"><path id="kity_path_251" fill="white" stroke="gray" d="M571.5,147.5A6,6,0,1,1,559.5,147.5A6,6,0,1,1,571.5,147.5"></path><path id="kity_path_252" fill="none" stroke="gray"></path></g><path id="node_outline27" fill="rgb(238, 243, 246)" stroke="rgb(115, 161, 191)" d="M575.5,134.5h79a3,3,0,0,1,3,3v20a3,3,0,0,1,-3,3h-79a3,3,0,0,1,-3,-3v-20a3,3,0,0,1,3,-3z" stroke-width="1"></path><g id="node_text27" fill="black"><text id="kity_text_248" text-rendering="inherit" font-size="14" dy=".8em" y="140.5" x="592.5">child-2</text></g></g><g id="minder_node28"><g id="node_expander27" style="cursor: pointer;" display="none"><path id="kity_path_259" fill="white" stroke="gray" d="M227.5,57.5A6,6,0,1,1,215.5,57.5A6,6,0,1,1,227.5,57.5"></path><path id="kity_path_260" fill="none" stroke="gray"></path></g><path id="node_outline28" fill="rgb(238, 243, 246)" stroke="rgb(115, 161, 191)" d="M132.5,44.5h79a3,3,0,0,1,3,3v20a3,3,0,0,1,-3,3h-79a3,3,0,0,1,-3,-3v-20a3,3,0,0,1,3,-3z" stroke-width="1"></path><g id="node_text28" fill="black"><text id="kity_text_256" text-rendering="inherit" font-size="14" dy=".8em" y="50.5" x="149.5">child-3</text></g></g><g id="minder_node29"><g id="node_expander28" style="cursor: pointer;"><path id="kity_path_267" fill="white" stroke="gray" d="M227.5,147.5A6,6,0,1,1,215.5,147.5A6,6,0,1,1,227.5,147.5"></path><path id="kity_path_268" fill="none" stroke="gray" d="M217,147.5L226,147.5"></path></g><path id="node_outline29" fill="rgb(238, 243, 246)" stroke="rgb(115, 161, 191)" d="M132.5,134.5h79a3,3,0,0,1,3,3v20a3,3,0,0,1,-3,3h-79a3,3,0,0,1,-3,-3v-20a3,3,0,0,1,3,-3z" stroke-width="1"></path><g id="node_text29" fill="black"><text id="kity_text_264" text-rendering="inherit" font-size="14" dy=".8em" y="140.5" x="149.5">child-4</text></g></g><g id="minder_node30"><g id="node_expander29" style="cursor: pointer;" display="none"><path id="kity_path_275" fill="white" stroke="gray" d="M101.5,121.5A6,6,0,1,1,89.5,121.5A6,6,0,1,1,101.5,121.5"></path><path id="kity_path_276" fill="none" stroke="gray" d="M91,121.5L100,121.5"></path></g><path id="node_outline30" fill="none" stroke="none" d="M25.5,110.5h59a5,5,0,0,1,5,5v12a5,5,0,0,1,-5,5h-59a5,5,0,0,1,-5,-5v-12a5,5,0,0,1,5,-5z" stroke-width="3"></path><g id="node_text30" fill="black"><text id="kity_text_272" text-rendering="inherit" font-size="12" dy=".8em" y="115.5" x="30.5">child-4-1</text></g></g><g id="minder_node32"><g id="node_expander31" style="cursor: pointer;" display="none"><path id="kity_path_291" fill="white" stroke="gray" d="M101.5,173.5A6,6,0,1,1,89.5,173.5A6,6,0,1,1,101.5,173.5"></path><path id="kity_path_292" fill="none" stroke="gray"></path></g><path id="node_outline32" fill="none" stroke="none" d="M25.5,162.5h59a5,5,0,0,1,5,5v12a5,5,0,0,1,-5,5h-59a5,5,0,0,1,-5,-5v-12a5,5,0,0,1,5,-5z" stroke-width="3"></path><g id="node_text32" fill="black"><text id="kity_text_288" text-rendering="inherit" font-size="12" dy=".8em" y="167.5" x="30.5">child-4-2</text></g></g><g id="minder_node33" opacity="1"><g id="node_expander32" style="cursor: pointer;" display="none"><path id="kity_path_299" fill="white" stroke="gray" d="M806.5,83.5A6,6,0,1,1,794.5,83.5A6,6,0,1,1,806.5,83.5"></path><path id="kity_path_300" fill="none" stroke="gray"></path></g><path id="node_outline33" fill="none" stroke="none" d="M811.5,72.5h70a5,5,0,0,1,5,5v12a5,5,0,0,1,-5,5h-70a5,5,0,0,1,-5,-5v-12a5,5,0,0,1,5,-5z" stroke-width="3"></path><g id="node_text33" fill="black"><text id="kity_text_296" text-rendering="inherit" font-size="12" dy=".8em" y="77.5" x="816.5">child-1-2-1</text></g></g><g id="kity_g_12" display="none"><path id="kity_path_13" fill="none" stroke="rgb(66, 94, 112)" d="M177.5,337.5h59a5,5,0,0,1,5,5v12a5,5,0,0,1,-5,5h-59a5,5,0,0,1,-5,-5v-12a5,5,0,0,1,5,-5z" stroke-width="5"></path></g></g></g></svg>